<svg xmlns="http://www.w3.org/2000/svg" viewBox="0 0 800 560" preserveAspectRatio="xMidYMid slice" role="img" aria-label="Turquoise island waters in the Andamans"><defs><linearGradient id="sky" x1="0" y1="0" x2="0" y2="1"><stop offset="0.00" stop-color="#8FE3FE"/><stop offset="0.50" stop-color="#29CFFD"/><stop offset="1.00" stop-color="#0080D8"/></linearGradient><linearGradient id="wat" x1="0" y1="0" x2="0" y2="1"><stop offset="0.00" stop-color="#5FE6F5"/><stop offset="0.50" stop-color="#12A6E8"/><stop offset="1.00" stop-color="#0B5FA8"/></linearGradient></defs><rect width="800" height="560" fill="url(#sky)"/><circle cx="160" cy="140" r="105" fill="#FFF3D6" opacity=".16"/><circle cx="160" cy="140" r="75" fill="#FFF3D6" opacity=".22"/><circle cx="160" cy="140" r="50" fill="#FFF3D6" opacity="1.00"/><g fill="#FFFFFF" opacity="0.35"><ellipse cx="90" cy="111" rx="36" ry="15"/><ellipse cx="63" cy="117" rx="23" ry="12"/><ellipse cx="114" cy="116" rx="22" ry="11"/></g><g fill="#FFFFFF" opacity="0.35"><ellipse cx="352" cy="86" rx="55" ry="24"/><ellipse cx="311" cy="95" rx="36" ry="18"/><ellipse cx="390" cy="94" rx="34" ry="17"/></g><g fill="#FFFFFF" opacity="0.35"><ellipse cx="432" cy="154" rx="57" ry="25"/><ellipse cx="390" cy="164" rx="37" ry="19"/><ellipse cx="472" cy="163" rx="35" ry="17"/></g><path d="M397 146 q3 -4 7 0 q3 -4 7 0" fill="none" stroke="#FFFFFF" stroke-width="2" stroke-linecap="round" opacity="0.55"/><path d="M582 98 q4 -4 8 0 q4 -4 8 0" fill="none" stroke="#FFFFFF" stroke-width="2" stroke-linecap="round" opacity="0.55"/><path d="M187 177 q4 -5 9 0 q4 -5 9 0" fill="none" stroke="#FFFFFF" stroke-width="2" stroke-linecap="round" opacity="0.55"/><path d="M403 153 q6 -6 11 0 q6 -6 11 0" fill="none" stroke="#FFFFFF" stroke-width="2" stroke-linecap="round" opacity="0.55"/><path d="M707 134 q6 -6 11 0 q6 -6 11 0" fill="none" stroke="#FFFFFF" stroke-width="2" stroke-linecap="round" opacity="0.55"/><path d="M426 336 Q513 286 585 290 Q664 292 744 336 Z" fill="#0B5FA8" opacity="0.45"/><path d="M714 336 Q772 303 820 305 Q873 307 925 336 Z" fill="#0B5FA8" opacity="0.45"/><path d="M104 336 Q179 294 240 297 Q308 299 376 336 Z" fill="#0B5FA8" opacity="0.45"/><path d="M115 336 Q178 300 230 303 Q287 304 344 336 Z" fill="#0B5FA8" opacity="0.45"/><rect x="0" y="340" width="800" height="220" fill="url(#wat)"/><rect x="182" y="354" width="80" height="3" rx="1.5" fill="#FFFFFF" opacity="0.30"/><rect x="345" y="367" width="69" height="3" rx="1.5" fill="#FFFFFF" opacity="0.29"/><rect x="288" y="381" width="108" height="3" rx="1.5" fill="#FFFFFF" opacity="0.28"/><rect x="49" y="394" width="126" height="3" rx="1.5" fill="#FFFFFF" opacity="0.26"/><rect x="39" y="408" width="116" height="3" rx="1.5" fill="#FFFFFF" opacity="0.25"/><rect x="55" y="421" width="72" height="3" rx="1.5" fill="#FFFFFF" opacity="0.24"/><rect x="232" y="435" width="167" height="3" rx="1.5" fill="#FFFFFF" opacity="0.23"/><rect x="82" y="448" width="89" height="3" rx="1.5" fill="#FFFFFF" opacity="0.22"/><rect x="334" y="462" width="183" height="3" rx="1.5" fill="#FFFFFF" opacity="0.20"/><rect x="309" y="475" width="112" height="3" rx="1.5" fill="#FFFFFF" opacity="0.19"/><rect x="508" y="489" width="66" height="3" rx="1.5" fill="#FFFFFF" opacity="0.18"/><rect x="449" y="502" width="98" height="3" rx="1.5" fill="#FFFFFF" opacity="0.17"/><rect x="92" y="516" width="75" height="3" rx="1.5" fill="#FFFFFF" opacity="0.16"/><rect x="174" y="529" width="166" height="3" rx="1.5" fill="#FFFFFF" opacity="0.14"/><rect x="110" y="543" width="136" height="3" rx="1.5" fill="#FFFFFF" opacity="0.13"/><rect x="339" y="556" width="108" height="3" rx="1.5" fill="#FFFFFF" opacity="0.12"/><path d="M394 452 Q486 403 562 406 Q646 408 730 452 Z" fill="#04264F" opacity="1.00"/><path d="M-124 452 Q3 384 107 389 Q222 392 337 452 Z" fill="#04264F" opacity="1.00"/><path d="M0 470 Q210 446 430 472 T800 464 L800 560 L0 560 Z" fill="#FFE3B0"/><g fill="#002352"><path d="M133.0 492.0 Q142.0 419.4 156.0 360.0 L164.0 360.0 Q149.0 419.4 147.0 492.0 Z"/><path d="M160.0 360.0 Q120.4 361.4 80.8 386.8 Q124.4 377.4 160.0 360.0 Z"/><path d="M160.0 360.0 Q131.0 348.8 102.0 359.3 Q133.9 364.5 160.0 360.0 Z"/><path d="M160.0 360.0 Q160.0 344.5 160.0 346.7 Q160.0 358.0 160.0 360.0 Z"/><path d="M160.0 360.0 Q189.0 348.8 218.0 359.3 Q186.1 364.5 160.0 360.0 Z"/><path d="M160.0 360.0 Q199.6 361.4 239.2 386.8 Q195.6 377.4 160.0 360.0 Z"/><circle cx="160.0" cy="360.0" r="5.0"/><circle cx="151.0" cy="369.0" r="4.5"/><circle cx="167.0" cy="371.0" r="4.0"/></g><g fill="#002352"><path d="M245.0 480.0 Q251.4 427.7 261.5 385.0 L267.3 385.0 Q256.5 427.7 255.0 480.0 Z"/><path d="M264.4 385.0 Q235.9 386.0 207.4 404.2 Q238.7 397.5 264.4 385.0 Z"/><path d="M264.4 385.0 Q243.5 376.9 222.7 384.4 Q245.6 388.2 264.4 385.0 Z"/><path d="M264.4 385.0 Q264.4 373.8 264.4 375.4 Q264.4 383.5 264.4 385.0 Z"/><path d="M264.4 385.0 Q285.3 376.9 306.1 384.4 Q283.2 388.2 264.4 385.0 Z"/><path d="M264.4 385.0 Q292.9 386.0 321.4 404.2 Q290.1 397.5 264.4 385.0 Z"/><circle cx="264.4" cy="385.0" r="3.6"/><circle cx="257.9" cy="391.4" r="3.2"/><circle cx="269.4" cy="392.9" r="2.9"/></g><g fill="#002352"><path d="M683.6 500.0 Q688.2 433.2 667.9 378.6 L675.3 378.6 Q681.7 433.2 696.4 500.0 Z"/><path d="M671.6 378.6 Q708.0 379.8 744.5 403.2 Q704.4 394.6 671.6 378.6 Z"/><path d="M671.6 378.6 Q698.3 368.3 724.9 377.9 Q695.6 382.7 671.6 378.6 Z"/><path d="M671.6 378.6 Q671.6 364.3 671.6 366.3 Q671.6 376.7 671.6 378.6 Z"/><path d="M671.6 378.6 Q644.9 368.3 618.3 377.9 Q647.6 382.7 671.6 378.6 Z"/><path d="M671.6 378.6 Q635.2 379.8 598.7 403.2 Q638.8 394.6 671.6 378.6 Z"/><circle cx="671.6" cy="378.6" r="4.6"/><circle cx="679.9" cy="386.8" r="4.1"/><circle cx="665.2" cy="388.7" r="3.7"/></g><g fill="#04264F"><path d="M453 400 q17 10 34 0 Z" opacity=".92"/><rect x="468" y="374" width="3" height="26"/><path d="M473 375 l13 21 l-13 0 Z"/></g></svg>