<svg xmlns="http://www.w3.org/2000/svg" viewBox="0 0 800 560" preserveAspectRatio="xMidYMid slice" role="img" aria-label="Palm trees on a Goan beach at sunset"><defs><linearGradient id="sky" x1="0" y1="0" x2="0" y2="1"><stop offset="0.00" stop-color="#FEB25A"/><stop offset="0.50" stop-color="#F0743F"/><stop offset="1.00" stop-color="#7A3A6B"/></linearGradient><linearGradient id="wat" x1="0" y1="0" x2="0" y2="1"><stop offset="0.00" stop-color="#5FE6F5"/><stop offset="0.50" stop-color="#12A6E8"/><stop offset="1.00" stop-color="#0B5FA8"/></linearGradient></defs><rect width="800" height="560" fill="url(#sky)"/><circle cx="620" cy="150" r="113" fill="#FFF3D6" opacity=".16"/><circle cx="620" cy="150" r="81" fill="#FFF3D6" opacity=".22"/><circle cx="620" cy="150" r="54" fill="#FFF3D6" opacity="1.00"/><g fill="#FFFFFF" opacity="0.35"><ellipse cx="439" cy="139" rx="54" ry="23"/><ellipse cx="399" cy="148" rx="35" ry="18"/><ellipse cx="477" cy="147" rx="33" ry="16"/></g><g fill="#FFFFFF" opacity="0.35"><ellipse cx="234" cy="141" rx="56" ry="24"/><ellipse cx="193" cy="151" rx="37" ry="18"/><ellipse cx="273" cy="150" rx="34" ry="17"/></g><g fill="#FFFFFF" opacity="0.35"><ellipse cx="676" cy="76" rx="49" ry="21"/><ellipse cx="640" cy="85" rx="32" ry="16"/><ellipse cx="710" cy="84" rx="30" ry="15"/></g><path d="M475 150 q6 -6 12 0 q6 -6 12 0" fill="none" stroke="#FFFFFF" stroke-width="2" stroke-linecap="round" opacity="0.55"/><path d="M418 143 q6 -6 12 0 q6 -6 12 0" fill="none" stroke="#FFFFFF" stroke-width="2" stroke-linecap="round" opacity="0.55"/><path d="M487 126 q4 -4 8 0 q4 -4 8 0" fill="none" stroke="#FFFFFF" stroke-width="2" stroke-linecap="round" opacity="0.55"/><path d="M398 96 q5 -5 10 0 q5 -5 10 0" fill="none" stroke="#FFFFFF" stroke-width="2" stroke-linecap="round" opacity="0.55"/><path d="M0 560 L0 330 Q44 269 148 315 Q264 262 380 318 Q447 287 514 312 Q591 279 668 314 Q773 284 878 324 Q952 276 1027 330 L800 560 Z" fill="#0B5FA8" opacity="0.35"/><rect x="0" y="340" width="800" height="220" fill="url(#wat)"/><rect x="182" y="354" width="80" height="3" rx="1.5" fill="#FFFFFF" opacity="0.30"/><rect x="345" y="367" width="69" height="3" rx="1.5" fill="#FFFFFF" opacity="0.29"/><rect x="288" y="381" width="108" height="3" rx="1.5" fill="#FFFFFF" opacity="0.28"/><rect x="49" y="394" width="126" height="3" rx="1.5" fill="#FFFFFF" opacity="0.26"/><rect x="39" y="408" width="116" height="3" rx="1.5" fill="#FFFFFF" opacity="0.25"/><rect x="55" y="421" width="72" height="3" rx="1.5" fill="#FFFFFF" opacity="0.24"/><rect x="232" y="435" width="167" height="3" rx="1.5" fill="#FFFFFF" opacity="0.23"/><rect x="82" y="448" width="89" height="3" rx="1.5" fill="#FFFFFF" opacity="0.22"/><rect x="334" y="462" width="183" height="3" rx="1.5" fill="#FFFFFF" opacity="0.20"/><rect x="309" y="475" width="112" height="3" rx="1.5" fill="#FFFFFF" opacity="0.19"/><rect x="508" y="489" width="66" height="3" rx="1.5" fill="#FFFFFF" opacity="0.18"/><rect x="449" y="502" width="98" height="3" rx="1.5" fill="#FFFFFF" opacity="0.17"/><rect x="92" y="516" width="75" height="3" rx="1.5" fill="#FFFFFF" opacity="0.16"/><rect x="174" y="529" width="166" height="3" rx="1.5" fill="#FFFFFF" opacity="0.14"/><rect x="110" y="543" width="136" height="3" rx="1.5" fill="#FFFFFF" opacity="0.13"/><rect x="339" y="556" width="108" height="3" rx="1.5" fill="#FFFFFF" opacity="0.12"/><path d="M0 470 Q200 440 400 470 T800 470 L800 560 L0 560 Z" fill="#FFE3B0"/><g fill="#002352"><path d="M112.0 500.0 Q122.3 416.5 138.4 348.2 L147.6 348.2 Q130.3 416.5 128.1 500.0 Z"/><path d="M143.0 348.2 Q97.4 349.8 51.9 379.0 Q102.0 368.3 143.0 348.2 Z"/><path d="M143.0 348.2 Q109.7 335.4 76.3 347.4 Q113.0 353.4 143.0 348.2 Z"/><path d="M143.0 348.2 Q143.0 330.3 143.0 332.9 Q143.0 345.9 143.0 348.2 Z"/><path d="M143.0 348.2 Q176.3 335.4 209.7 347.4 Q173.0 353.4 143.0 348.2 Z"/><path d="M143.0 348.2 Q188.6 349.8 234.1 379.0 Q184.0 368.3 143.0 348.2 Z"/><circle cx="143.0" cy="348.2" r="5.8"/><circle cx="132.7" cy="358.6" r="5.2"/><circle cx="151.1" cy="360.9" r="4.6"/></g><g fill="#002352"><path d="M693.4 520.0 Q698.1 451.0 677.2 394.6 L684.8 394.6 Q691.5 451.0 706.6 520.0 Z"/><path d="M681.0 394.6 Q718.6 395.9 756.3 420.0 Q714.9 411.2 681.0 394.6 Z"/><path d="M681.0 394.6 Q708.5 384.0 736.1 393.9 Q705.8 398.9 681.0 394.6 Z"/><path d="M681.0 394.6 Q681.0 379.8 681.0 381.9 Q681.0 392.7 681.0 394.6 Z"/><path d="M681.0 394.6 Q653.5 384.0 625.9 393.9 Q656.2 398.9 681.0 394.6 Z"/><path d="M681.0 394.6 Q643.4 395.9 605.7 420.0 Q647.1 411.2 681.0 394.6 Z"/><circle cx="681.0" cy="394.6" r="4.8"/><circle cx="689.5" cy="403.2" r="4.3"/><circle cx="674.4" cy="405.1" r="3.8"/></g><g fill="#04264F"><path d="M411 372 q19 11 37 0 Z" opacity=".92"/><rect x="428" y="343" width="3" height="29"/><path d="M433 344 l14 23 l-14 0 Z"/></g></svg>