<svg xmlns="http://www.w3.org/2000/svg" viewBox="0 0 800 560" preserveAspectRatio="xMidYMid slice" role="img" aria-label="The Singapore skyline lit up at night"><defs><linearGradient id="sky" x1="0" y1="0" x2="0" y2="1"><stop offset="0.00" stop-color="#0B4B8F"/><stop offset="0.50" stop-color="#04264F"/><stop offset="1.00" stop-color="#002352"/></linearGradient><linearGradient id="wat" x1="0" y1="0" x2="0" y2="1"><stop offset="0.00" stop-color="#1E9BE0"/><stop offset="0.50" stop-color="#0B5FA8"/><stop offset="1.00" stop-color="#002352"/></linearGradient></defs><rect width="800" height="560" fill="url(#sky)"/><circle cx="150" cy="140" r="100" fill="#FFF3D6" opacity=".16"/><circle cx="150" cy="140" r="72" fill="#FFF3D6" opacity=".22"/><circle cx="150" cy="140" r="48" fill="#FFF3D6" opacity="1.00"/><g fill="#FFFFFF" opacity="0.25"><ellipse cx="230" cy="118" rx="30" ry="13"/><ellipse cx="208" cy="124" rx="20" ry="10"/><ellipse cx="251" cy="123" rx="18" ry="9"/></g><g fill="#FFFFFF" opacity="0.25"><ellipse cx="277" cy="60" rx="28" ry="12"/><ellipse cx="256" cy="65" rx="18" ry="9"/><ellipse cx="297" cy="64" rx="17" ry="9"/></g><path d="M262 104 q4 -4 8 0 q4 -4 8 0" fill="none" stroke="#FFFFFF" stroke-width="2" stroke-linecap="round" opacity="0.55"/><path d="M556 94 q5 -5 10 0 q5 -5 10 0" fill="none" stroke="#FFFFFF" stroke-width="2" stroke-linecap="round" opacity="0.55"/><path d="M166 185 q5 -6 10 0 q5 -6 10 0" fill="none" stroke="#FFFFFF" stroke-width="2" stroke-linecap="round" opacity="0.55"/><rect x="-20" y="206" width="36" height="220" fill="#0B5FA8" opacity="0.38"/><polygon points="-2,172 -20,206 16,206" fill="#0B5FA8" opacity="0.38"/><rect x="25" y="193" width="55" height="233" fill="#0B5FA8" opacity="0.38"/><rect x="87" y="186" width="57" height="240" fill="#0B5FA8" opacity="0.38"/><rect x="149" y="296" width="57" height="130" fill="#0B5FA8" opacity="0.38"/><rect x="220" y="238" width="56" height="188" fill="#0B5FA8" opacity="0.38"/><polygon points="248,171 220,238 276,238" fill="#0B5FA8" opacity="0.38"/><rect x="290" y="249" width="52" height="177" fill="#0B5FA8" opacity="0.38"/><rect x="358" y="290" width="63" height="136" fill="#0B5FA8" opacity="0.38"/><rect x="424" y="244" width="47" height="182" fill="#0B5FA8" opacity="0.38"/><rect x="480" y="326" width="60" height="100" fill="#0B5FA8" opacity="0.38"/><rect x="545" y="200" width="43" height="226" fill="#0B5FA8" opacity="0.38"/><rect x="592" y="238" width="61" height="188" fill="#0B5FA8" opacity="0.38"/><rect x="660" y="319" width="39" height="107" fill="#0B5FA8" opacity="0.38"/><rect x="704" y="333" width="64" height="93" fill="#0B5FA8" opacity="0.38"/><rect x="779" y="303" width="42" height="123" fill="#0B5FA8" opacity="0.38"/><rect x="-20" y="378" width="49" height="98" fill="#04264F" opacity="1.00"/><polygon points="4,332 -20,378 29,378" fill="#04264F" opacity="1.00"/><rect x="44" y="270" width="35" height="206" fill="#04264F" opacity="1.00"/><rect x="95" y="382" width="61" height="94" fill="#04264F" opacity="1.00"/><rect x="163" y="255" width="47" height="221" fill="#04264F" opacity="1.00"/><rect x="217" y="389" width="31" height="87" fill="#04264F" opacity="1.00"/><rect x="254" y="281" width="33" height="195" fill="#04264F" opacity="1.00"/><rect x="295" y="257" width="41" height="219" fill="#04264F" opacity="1.00"/><rect x="347" y="303" width="64" height="173" fill="#04264F" opacity="1.00"/><rect x="416" y="370" width="53" height="106" fill="#04264F" opacity="1.00"/><rect x="483" y="353" width="58" height="123" fill="#04264F" opacity="1.00"/><rect x="548" y="316" width="39" height="160" fill="#04264F" opacity="1.00"/><rect x="593" y="344" width="34" height="132" fill="#04264F" opacity="1.00"/><rect x="634" y="268" width="44" height="208" fill="#04264F" opacity="1.00"/><polygon points="656,217 634,268 678,268" fill="#04264F" opacity="1.00"/><rect x="693" y="301" width="28" height="175" fill="#04264F" opacity="1.00"/><polygon points="707,251 693,301 721,301" fill="#04264F" opacity="1.00"/><rect x="730" y="270" width="38" height="206" fill="#04264F" opacity="1.00"/><rect x="779" y="259" width="55" height="217" fill="#04264F" opacity="1.00"/><polygon points="806,221 779,259 834,259" fill="#04264F" opacity="1.00"/><rect x="0" y="470" width="800" height="90" fill="url(#wat)"/><rect x="182" y="484" width="80" height="3" rx="1.5" fill="#FFFFFF" opacity="0.30"/><rect x="345" y="490" width="69" height="3" rx="1.5" fill="#FFFFFF" opacity="0.29"/><rect x="288" y="495" width="108" height="3" rx="1.5" fill="#FFFFFF" opacity="0.28"/><rect x="49" y="501" width="126" height="3" rx="1.5" fill="#FFFFFF" opacity="0.26"/><rect x="39" y="506" width="116" height="3" rx="1.5" fill="#FFFFFF" opacity="0.25"/><rect x="55" y="512" width="72" height="3" rx="1.5" fill="#FFFFFF" opacity="0.24"/><rect x="232" y="517" width="167" height="3" rx="1.5" fill="#FFFFFF" opacity="0.23"/><rect x="82" y="523" width="89" height="3" rx="1.5" fill="#FFFFFF" opacity="0.22"/><rect x="334" y="528" width="183" height="3" rx="1.5" fill="#FFFFFF" opacity="0.20"/><rect x="309" y="534" width="112" height="3" rx="1.5" fill="#FFFFFF" opacity="0.19"/><rect x="508" y="539" width="66" height="3" rx="1.5" fill="#FFFFFF" opacity="0.18"/><rect x="449" y="545" width="98" height="3" rx="1.5" fill="#FFFFFF" opacity="0.17"/><rect x="92" y="550" width="75" height="3" rx="1.5" fill="#FFFFFF" opacity="0.16"/><rect x="174" y="556" width="166" height="3" rx="1.5" fill="#FFFFFF" opacity="0.14"/><rect x="110" y="561" width="136" height="3" rx="1.5" fill="#FFFFFF" opacity="0.13"/><rect x="339" y="567" width="108" height="3" rx="1.5" fill="#FFFFFF" opacity="0.12"/></svg>